# Blender v2.77 (sub 0) OBJ File: 'BusNo8.blend'
# www.blender.org
mtllib BusNo8.mtl
o Cube
v 2.000000 0.071324 -4.009078
v 2.000000 0.071324 5.000000
v -0.985298 0.071324 5.000000
v -0.985297 0.071324 -4.009078
v 2.000000 3.071324 -4.009077
v 1.999999 3.071324 5.000000
v -0.985298 3.071324 5.000000
v -0.985298 3.071324 -4.009078
vt 0.749743 0.997467
vt 0.000223 0.749101
vt 0.749743 0.749101
vt 0.749744 0.748656
vt 0.000223 0.500291
vt 0.749744 0.500291
vt 0.749744 0.499845
vt 0.000223 0.250257
vt 0.749744 0.250257
vt 0.998554 0.498622
vt 0.750189 0.249033
vt 0.998554 0.249033
vt 0.000223 0.000223
vt 0.749744 0.249811
vt 0.000223 0.249811
vt 0.750189 0.248588
vt 0.999777 0.000223
vt 0.999777 0.248588
vt 0.000223 0.997467
vt 0.000223 0.748656
vt 0.000223 0.499845
vt 0.750189 0.498622
vt 0.749744 0.000223
vt 0.750189 0.000223
vn 0.000000 -1.000000 0.000000
vn 0.000000 1.000000 0.000000
vn 1.000000 -0.000000 0.000000
vn 0.000000 -0.000000 1.000000
vn -1.000000 -0.000000 -0.000000
vn 0.000000 0.000000 -1.000000
usemtl Material
s off
f 1/1/1 3/2/1 4/3/1
f 8/4/2 6/5/2 5/6/2
f 5/7/3 2/8/3 1/9/3
f 6/10/4 3/11/4 2/12/4
f 7/13/5 4/14/5 3/15/5
f 1/16/6 8/17/6 5/18/6
f 1/1/1 2/19/1 3/2/1
f 8/4/2 7/20/2 6/5/2
f 5/7/3 6/21/3 2/8/3
f 6/10/4 7/22/4 3/11/4
f 7/13/5 8/23/5 4/14/5
f 1/16/6 4/24/6 8/17/6
