# Blender v2.77 (sub 0) OBJ File: 'Car.blend'
# www.blender.org
mtllib Car.mtl
o Car.001_Plane.009
v 1.500000 1.400003 -0.459061
v 1.500000 1.700000 -0.459061
v 1.500000 1.400003 -1.000000
v 1.500000 1.700000 -1.000000
v 1.800000 1.400003 -0.459061
v 1.800000 1.700000 -0.459061
v 1.800000 1.400003 -1.000000
v 1.800000 1.700000 -1.000000
v -1.546460 -0.153657 2.500000
v -1.519519 0.846343 2.500000
v -1.546460 -0.153657 1.500000
v -1.519519 0.846343 1.500000
v -1.290460 -0.153657 2.500000
v -1.263519 0.846343 2.500000
v -1.290460 -0.153657 1.500000
v -1.263519 0.846343 1.500000
v -1.535412 -0.153657 -1.200000
v -1.535412 0.846343 -1.200000
v -1.535412 -0.153657 -2.200000
v -1.535412 0.846343 -2.200000
v -1.335412 -0.153657 -1.200000
v -1.335412 0.846343 -1.200000
v -1.335412 -0.153657 -2.200000
v -1.335412 0.846343 -2.200000
v 1.343005 -0.153657 -1.200000
v 1.343005 0.846343 -1.200000
v 1.343005 -0.153657 -2.200000
v 1.343005 0.846343 -2.200000
v 1.543005 -0.153657 -1.200000
v 1.543005 0.846343 -1.200000
v 1.543005 -0.153657 -2.200000
v 1.543005 0.846343 -2.200000
v 1.347077 -0.212250 2.508162
v 1.347077 0.787750 2.508162
v 1.347077 -0.212250 1.508161
v 1.347077 0.787750 1.508161
v 1.547076 -0.212250 2.508162
v 1.547076 0.787750 2.508162
v 1.547076 -0.212250 1.508161
v 1.547076 0.787750 1.508161
v -1.200989 1.700000 1.979698
v 1.147382 1.700000 1.979698
v -1.200989 1.700000 -1.020302
v 1.147382 1.700000 -1.020302
v -1.200989 2.575403 1.979698
v 1.147382 2.575403 1.979698
v -1.200989 2.575403 -1.020302
v 1.147382 2.575403 -1.020302
v -1.000000 1.700000 3.000000
v 1.000000 1.700000 3.000000
v -1.000000 1.700000 2.600000
v 1.000000 1.700000 2.600000
v -1.000000 2.027740 3.000000
v 1.000000 2.027740 3.000000
v -1.000000 2.027740 2.600000
v 1.000000 2.027740 2.600000
v -1.500000 0.200001 3.000000
v 1.500000 0.200001 3.000000
v -1.500000 0.200001 -3.000000
v 1.500000 0.200001 -3.000000
v -1.500000 1.700001 3.000000
v 1.500000 1.700001 3.000000
v -1.500000 1.700001 -3.000000
v 1.500000 1.700001 -3.000000
v -1.546460 -0.153657 2.500000
v -1.546460 0.846343 2.500000
v -1.546460 -0.153657 1.500000
v -1.546460 0.846343 1.500000
v -1.800000 1.400003 -0.459061
v -1.800000 1.700000 -0.459061
v -1.800000 1.400003 -1.000000
v -1.800000 1.700000 -1.000000
v -1.500000 1.400003 -0.459061
v -1.500000 1.700000 -0.459061
v -1.500000 1.400003 -1.000000
v -1.500000 1.700000 -1.000000
vt 0.920649 0.915177
vt 0.920649 0.868276
vt 0.959665 0.868276
vt 0.959665 0.915177
vt 0.971885 0.170670
vt 0.945874 0.170670
vt 0.945874 0.131655
vt 0.971885 0.131655
vt 0.944807 0.170670
vt 0.897906 0.170670
vt 0.897906 0.131655
vt 0.944807 0.131655
vt 0.973738 0.982338
vt 0.947727 0.982338
vt 0.947727 0.943323
vt 0.973738 0.943323
vt 0.920649 0.916245
vt 0.967550 0.916245
vt 0.967550 0.942255
vt 0.920649 0.942255
vt 0.960732 0.915177
vt 0.960732 0.868276
vt 0.986743 0.868276
vt 0.986743 0.915177
vt 0.942845 0.867209
vt 0.920649 0.867209
vt 0.920649 0.737156
vt 0.942845 0.737156
vt 0.957462 0.450181
vt 0.870759 0.450181
vt 0.870759 0.320127
vt 0.957462 0.320127
vt 0.942845 0.736088
vt 0.920649 0.736088
vt 0.920649 0.606035
vt 0.942845 0.606035
vt 0.349478 0.915178
vt 0.436180 0.915178
vt 0.436180 0.937374
vt 0.349478 0.937374
vt 0.782990 0.582369
vt 0.869692 0.582369
vt 0.869692 0.604565
vt 0.782990 0.604565
vt 0.521815 0.000534
vt 0.781922 0.000534
vt 0.781922 0.204143
vt 0.521815 0.204143
vt 0.521815 0.408820
vt 0.521815 0.205210
vt 0.781922 0.205210
vt 0.781922 0.408820
vt 0.896839 0.000534
vt 0.896839 0.204143
vt 0.782990 0.204143
vt 0.782990 0.000534
vt 0.782990 0.205210
vt 0.986599 0.205210
vt 0.986599 0.319060
vt 0.782990 0.319060
vt 0.521815 0.867209
vt 0.781922 0.867209
vt 0.781922 0.981058
vt 0.521815 0.981058
vt 0.831812 0.606035
vt 0.831812 0.866142
vt 0.717963 0.866142
vt 0.717963 0.606035
vt 0.000534 0.993550
vt 0.000534 0.958869
vt 0.173938 0.958869
vt 0.173938 0.993550
vt 0.175006 0.958869
vt 0.348411 0.958869
vt 0.348411 0.993550
vt 0.175006 0.993550
vt 0.437248 0.915178
vt 0.471929 0.915178
vt 0.471929 0.957802
vt 0.437248 0.957802
vt 0.472996 0.915178
vt 0.507677 0.915178
vt 0.507677 0.957802
vt 0.472996 0.957802
vt 0.348411 0.957802
vt 0.175006 0.957802
vt 0.175006 0.915178
vt 0.348411 0.915178
vt 0.000534 0.915178
vt 0.173938 0.915178
vt 0.173938 0.957802
vt 0.000534 0.957802
vt 0.000534 0.000534
vt 0.520748 0.000534
vt 0.520748 0.260641
vt 0.000534 0.260641
vt 0.000534 0.521815
vt 0.000534 0.261708
vt 0.520748 0.261708
vt 0.520748 0.521815
vt 0.000534 0.719030
vt 0.520748 0.719030
vt 0.520748 0.914111
vt 0.000534 0.914111
vt 0.520748 0.717963
vt 0.000534 0.717963
vt 0.000534 0.522883
vt 0.520748 0.522883
vt 0.716896 0.606035
vt 0.716896 0.866142
vt 0.521815 0.866142
vt 0.521815 0.606035
vt 0.521815 0.409887
vt 0.781922 0.409887
vt 0.781922 0.604967
vt 0.521815 0.604967
vt 0.919582 0.998330
vt 0.832880 0.998330
vt 0.832880 0.868276
vt 0.919582 0.868276
vt 0.782990 0.954193
vt 0.782990 0.907292
vt 0.822005 0.907292
vt 0.822005 0.954193
vt 0.463258 0.997885
vt 0.437248 0.997885
vt 0.437248 0.958869
vt 0.463258 0.958869
vt 0.829890 0.906225
vt 0.782990 0.906225
vt 0.782990 0.867209
vt 0.829890 0.867209
vt 0.490336 0.997885
vt 0.464326 0.997885
vt 0.464326 0.958869
vt 0.490336 0.958869
vt 0.782990 0.955260
vt 0.829890 0.955260
vt 0.829890 0.981271
vt 0.782990 0.981271
vt 0.920649 0.990223
vt 0.920649 0.943323
vt 0.946660 0.943323
vt 0.946660 0.990223
vt 0.869692 0.581301
vt 0.782990 0.581301
vt 0.782990 0.451248
vt 0.869692 0.451248
vt 0.975870 0.450181
vt 0.958529 0.450181
vt 0.958529 0.320127
vt 0.975870 0.320127
vt 0.957462 0.581301
vt 0.870759 0.581301
vt 0.870759 0.451248
vt 0.957462 0.451248
vt 0.961253 0.867209
vt 0.943913 0.867209
vt 0.943913 0.737156
vt 0.961253 0.737156
vt 0.349478 0.938441
vt 0.436180 0.938441
vt 0.436180 0.955782
vt 0.349478 0.955782
vt 0.870759 0.582369
vt 0.957462 0.582369
vt 0.957462 0.599709
vt 0.870759 0.599709
vt 0.919582 0.867209
vt 0.832880 0.867209
vt 0.832880 0.737156
vt 0.919582 0.737156
vt 0.979661 0.867209
vt 0.962321 0.867209
vt 0.962320 0.737156
vt 0.979661 0.737156
vt 0.919582 0.736088
vt 0.832880 0.736088
vt 0.832880 0.606035
vt 0.919582 0.606035
vt 0.961253 0.736088
vt 0.943913 0.736088
vt 0.943913 0.606035
vt 0.961253 0.606035
vt 0.349478 0.975257
vt 0.436180 0.975257
vt 0.436180 0.992597
vt 0.349478 0.992597
vt 0.897906 0.171738
vt 0.984609 0.171738
vt 0.984609 0.189078
vt 0.897906 0.189078
vt 0.984609 0.130587
vt 0.897906 0.130587
vt 0.897906 0.000534
vt 0.984609 0.000534
vt 0.975870 0.581301
vt 0.958529 0.581301
vt 0.958529 0.451248
vt 0.975870 0.451248
vt 0.869692 0.450181
vt 0.782990 0.450181
vt 0.782990 0.320127
vt 0.869692 0.320127
vt 0.979661 0.736088
vt 0.962321 0.736088
vt 0.962321 0.606035
vt 0.979661 0.606035
vt 0.521815 0.982126
vt 0.608518 0.982126
vt 0.608518 0.999466
vt 0.521815 0.999466
vt 0.349478 0.956849
vt 0.436180 0.956849
vt 0.436180 0.974190
vt 0.349478 0.974190
vn -1.000000 0.000000 0.000000
vn 0.000000 0.000000 -1.000000
vn 1.000000 0.000000 0.000000
vn 0.000000 0.000000 1.000000
vn 0.000000 -1.000000 0.000000
vn 0.000000 1.000000 0.000000
vn 0.999600 -0.026900 0.000000
usemtl None
s off
f 2/1/1 4/2/1 3/3/1 1/4/1
f 4/5/2 8/6/2 7/7/2 3/8/2
f 8/9/3 6/10/3 5/11/3 7/12/3
f 6/13/4 2/14/4 1/15/4 5/16/4
f 1/17/5 3/18/5 7/19/5 5/20/5
f 6/21/6 8/22/6 4/23/6 2/24/6
f 12/25/2 16/26/2 15/27/2 11/28/2
f 16/29/7 14/30/7 13/31/7 15/32/7
f 14/33/4 10/34/4 9/35/4 13/36/4
f 9/37/5 11/38/5 15/39/5 13/40/5
f 14/41/6 16/42/6 12/43/6 10/44/6
f 41/45/5 43/46/5 44/47/5 42/48/5
f 45/49/6 46/50/6 48/51/6 47/52/6
f 44/53/2 43/54/2 47/55/2 48/56/2
f 41/57/4 42/58/4 46/59/4 45/60/4
f 42/61/3 44/62/3 48/63/3 46/64/3
f 43/65/1 41/66/1 45/67/1 47/68/1
f 49/69/5 51/70/5 52/71/5 50/72/5
f 53/73/6 54/74/6 56/75/6 55/76/6
f 50/77/3 52/78/3 56/79/3 54/80/3
f 51/81/1 49/82/1 53/83/1 55/84/1
f 52/85/2 51/86/2 55/87/2 56/88/2
f 49/89/4 50/90/4 54/91/4 53/92/4
f 57/93/5 59/94/5 60/95/5 58/96/5
f 61/97/6 62/98/6 64/99/6 63/100/6
f 58/101/3 60/102/3 64/103/3 62/104/3
f 59/105/1 57/106/1 61/107/1 63/108/1
f 60/109/2 59/110/2 63/111/2 64/112/2
f 57/113/4 58/114/4 62/115/4 61/116/4
f 66/117/1 68/118/1 67/119/1 65/120/1
f 70/121/1 72/122/1 71/123/1 69/124/1
f 72/125/2 76/126/2 75/127/2 71/128/2
f 76/129/3 74/130/3 73/131/3 75/132/3
f 74/133/4 70/134/4 69/135/4 73/136/4
f 69/137/5 71/138/5 75/139/5 73/140/5
f 74/141/6 76/142/6 72/143/6 70/144/6
usemtl Material.003
f 18/145/1 20/146/1 19/147/1 17/148/1
f 20/149/2 24/150/2 23/151/2 19/152/2
f 24/153/3 22/154/3 21/155/3 23/156/3
f 22/157/4 18/158/4 17/159/4 21/160/4
f 17/161/5 19/162/5 23/163/5 21/164/5
f 22/165/6 24/166/6 20/167/6 18/168/6
f 26/169/1 28/170/1 27/171/1 25/172/1
f 28/173/2 32/174/2 31/175/2 27/176/2
f 32/177/3 30/178/3 29/179/3 31/180/3
f 30/181/4 26/182/4 25/183/4 29/184/4
f 25/185/5 27/186/5 31/187/5 29/188/5
f 30/189/6 32/190/6 28/191/6 26/192/6
f 34/193/1 36/194/1 35/195/1 33/196/1
f 36/197/2 40/198/2 39/199/2 35/200/2
f 40/201/3 38/202/3 37/203/3 39/204/3
f 38/205/4 34/206/4 33/207/4 37/208/4
f 33/209/5 35/210/5 39/211/5 37/212/5
f 38/213/6 40/214/6 36/215/6 34/216/6
