# Blender v2.76 (sub 0) OBJ File: 'crossy_road.blend'
# www.blender.org
mtllib ShortTree1.mtl
o Cube.001
v -2.300000 3.000000 2.300000
v 2.300000 3.000000 2.300000
v -2.300000 3.000000 -2.300000
v 2.300000 3.000000 -2.300000
v -2.300000 6.000000 2.300000
v 2.300000 6.000000 2.300000
v -2.300000 6.000000 -2.300000
v 2.300000 6.000000 -2.300000
vn 0.000000 -1.000000 0.000000
vn 0.000000 1.000000 0.000000
vn 1.000000 0.000000 0.000000
vn -1.000000 0.000000 0.000000
vn 0.000000 0.000000 -1.000000
vn 0.000000 0.000000 1.000000
usemtl Leaf.002
s off
f 1//1 3//1 4//1 2//1
f 5//2 6//2 8//2 7//2
f 2//3 4//3 8//3 6//3
f 3//4 1//4 5//4 7//4
f 4//5 3//5 7//5 8//5
f 1//6 2//6 6//6 5//6
o Plane.019
v -1.000000 0.000000 1.026428
v 1.000000 0.000000 1.026428
v -1.000000 0.000000 -0.973572
v 1.000000 0.000000 -0.973572
v -1.000000 2.000000 1.026428
v 1.000000 2.000000 1.026428
v -1.000000 2.000000 -0.973572
v 1.000000 2.000000 -0.973572
vn 0.000000 -1.000000 0.000000
vn 0.000000 1.000000 0.000000
vn 1.000000 0.000000 0.000000
vn -1.000000 0.000000 0.000000
vn 0.000000 0.000000 -1.000000
vn 0.000000 0.000000 1.000000
usemtl Material.001
s off
f 9//7 11//7 12//7 10//7
f 13//8 14//8 16//8 15//8
f 10//9 12//9 16//9 14//9
f 11//10 9//10 13//10 15//10
f 12//11 11//11 15//11 16//11
f 9//12 10//12 14//12 13//12
o Plane.020
v -2.300000 6.000004 2.300000
v 2.300000 6.000004 2.300000
v -2.300000 6.000004 -2.300000
v 2.300000 6.000004 -2.300000
v -2.300000 7.000000 2.300000
v 2.300000 7.000000 2.300000
v -2.300000 7.000000 -2.300000
v 2.300000 7.000000 -2.300000
v -2.300000 7.000000 -2.300000
v -2.300000 7.000000 2.300000
v 2.300000 7.000000 2.300000
v 2.300000 7.000000 -2.300000
vn 0.000000 -1.000000 0.000000
vn 0.000000 0.000000 1.000000
vn 1.000000 0.000000 0.000000
vn -1.000000 0.000000 0.000000
vn 0.000000 0.000000 -1.000000
vn 0.000000 1.000000 0.000000
usemtl Leaf.003
s off
f 17//13 19//13 20//13 18//13
f 21//14 22//14 27//14 26//14
f 18//15 20//15 24//15 22//15
f 19//16 17//16 21//16 23//16
f 20//17 19//17 23//17 24//17
f 17//14 18//14 22//14 21//14
f 26//18 27//18 28//18 25//18
f 22//14 24//14 28//14 27//14
f 23//14 21//14 26//14 25//14
f 24//14 23//14 25//14 28//14
o Plane.021_Plane.022
v -2.300000 2.000004 2.300000
v 2.300000 2.000004 2.300000
v -2.300000 2.000004 -2.300000
v 2.300000 2.000004 -2.300000
v -2.300000 3.000000 2.300000
v 2.300000 3.000000 2.300000
v -2.300000 3.000000 -2.300000
v 2.300000 3.000000 -2.300000
v -2.300000 3.000000 -2.300000
v -2.300000 3.000000 2.300000
v 2.300000 3.000000 2.300000
v 2.300000 3.000000 -2.300000
vn 0.000000 -1.000000 0.000000
vn 0.000000 0.000000 1.000000
vn 1.000000 0.000000 0.000000
vn -1.000000 0.000000 0.000000
vn 0.000000 0.000000 -1.000000
vn 0.000000 1.000000 0.000000
usemtl Leaf.004
s off
f 29//19 31//19 32//19 30//19
f 33//20 34//20 39//20 38//20
f 30//21 32//21 36//21 34//21
f 31//22 29//22 33//22 35//22
f 32//23 31//23 35//23 36//23
f 29//20 30//20 34//20 33//20
f 38//24 39//24 40//24 37//24
f 34//20 36//20 40//20 39//20
f 35//20 33//20 38//20 37//20
f 36//20 35//20 37//20 40//20
