# Blender v2.77 (sub 0) OBJ File: 'TreeShort.blend'
# www.blender.org
mtllib TreeShort.mtl
o Tree01_Plane
v -1.000000 0.000000 2.026428
v 2.000000 0.000000 2.026428
v -1.000000 0.000000 -0.973572
v 2.000000 0.000000 -0.973572
v -1.000000 4.000000 2.026428
v 2.000000 4.000000 2.026428
v -1.000000 4.000000 -0.973572
v 2.000000 4.000000 -0.973572
v -1.783062 3.000000 2.796137
v 2.816938 3.000000 2.796137
v -1.783062 3.000000 -1.803863
v 2.816938 3.000000 -1.803863
v -1.783062 6.475887 2.796137
v 2.816938 6.475887 2.796137
v -1.783062 6.475887 -1.803863
v 2.816938 6.475887 -1.803863
vt 0.568042 0.999692
vt 0.568042 0.814963
vt 0.752770 0.814963
vt 0.752770 0.999692
vt 0.370998 0.925184
vt 0.370998 0.740455
vt 0.555727 0.740455
vt 0.555727 0.925184
vt 0.000308 0.740455
vt 0.185037 0.740455
vt 0.185037 0.986760
vt 0.000308 0.986760
vt 0.568042 0.568042
vt 0.752770 0.568042
vt 0.752770 0.814347
vt 0.568042 0.814347
vt 0.753387 0.568042
vt 0.938115 0.568042
vt 0.938115 0.814347
vt 0.753387 0.814347
vt 0.185653 0.740455
vt 0.370382 0.740455
vt 0.370382 0.986760
vt 0.185653 0.986760
vt 0.568042 0.283559
vt 0.568042 0.000308
vt 0.851292 0.000308
vt 0.851292 0.283559
vt 0.568042 0.284175
vt 0.851292 0.284175
vt 0.851292 0.567425
vt 0.568042 0.567425
vt 0.284175 0.000308
vt 0.567425 0.000308
vt 0.567425 0.369765
vt 0.284175 0.369765
vt 0.000308 0.370382
vt 0.283558 0.370382
vt 0.283558 0.739839
vt 0.000308 0.739839
vt 0.284175 0.370382
vt 0.567425 0.370382
vt 0.567425 0.739839
vt 0.284175 0.739839
vt 0.000308 0.000308
vt 0.283558 0.000308
vt 0.283559 0.369765
vt 0.000308 0.369765
vn 0.000000 -1.000000 0.000000
vn 0.000000 1.000000 0.000000
vn 1.000000 0.000000 0.000000
vn -1.000000 0.000000 0.000000
vn 0.000000 0.000000 -1.000000
vn 0.000000 0.000000 1.000000
usemtl Material
s off
f 1/1/1 3/2/1 4/3/1 2/4/1
f 5/5/2 6/6/2 8/7/2 7/8/2
f 2/9/3 4/10/3 8/11/3 6/12/3
f 3/13/4 1/14/4 5/15/4 7/16/4
f 4/17/5 3/18/5 7/19/5 8/20/5
f 1/21/6 2/22/6 6/23/6 5/24/6
usemtl Leaf
f 9/25/1 11/26/1 12/27/1 10/28/1
f 13/29/2 14/30/2 16/31/2 15/32/2
f 10/33/3 12/34/3 16/35/3 14/36/3
f 11/37/4 9/38/4 13/39/4 15/40/4
f 12/41/5 11/42/5 15/43/5 16/44/5
f 9/45/6 10/46/6 14/47/6 13/48/6
