# Blender v2.77 (sub 0) OBJ File: 'Truck.blend'
# www.blender.org
mtllib Truck.mtl
o Mirror_Cube
v 1.500000 1.069251 -4.570587
v 1.500000 1.537660 -4.570587
v 1.500000 1.069251 -4.835788
v 1.500000 1.537660 -4.835788
v 1.693715 1.069251 -4.570587
v 1.693715 1.537660 -4.570587
v 1.693715 1.069251 -4.835788
v 1.693715 1.537660 -4.835788
v -1.693715 1.069251 -4.570586
v -1.693715 1.537660 -4.570586
v -1.693715 1.069251 -4.835788
v -1.693715 1.537660 -4.835788
v -1.500000 1.069251 -4.570586
v -1.500000 1.537660 -4.570586
v -1.500000 1.069251 -4.835788
v -1.500000 1.537660 -4.835788
vn -1.000000 0.000000 0.000000
vn 0.000000 0.000000 -1.000000
vn 1.000000 0.000000 0.000000
vn 0.000000 0.000000 1.000000
vn 0.000000 -1.000000 0.000000
vn 0.000000 1.000000 0.000000
usemtl Red
s off
f 2//1 4//1 3//1 1//1
f 4//2 8//2 7//2 3//2
f 8//3 6//3 5//3 7//3
f 6//4 2//4 1//4 5//4
f 1//5 3//5 7//5 5//5
f 6//6 8//6 4//6 2//6
f 10//1 12//1 11//1 9//1
f 12//2 16//2 15//2 11//2
f 16//3 14//3 13//3 15//3
f 14//4 10//4 9//4 13//4
f 9//5 11//5 15//5 13//5
f 14//6 16//6 12//6 10//6
o BottonWheel_Plane.001
v 1.650000 0.370066 -1.361256
v 1.650000 0.370066 -1.676102
v 1.650000 0.670144 -1.361256
v 1.650000 0.670144 -1.676102
v 1.758799 0.370066 -1.361256
v 1.758799 0.370066 -1.676102
v 1.758799 0.670144 -1.361256
v 1.758799 0.670144 -1.676102
v 1.650000 0.370065 -3.832809
v 1.650000 0.370065 -4.147655
v 1.650000 0.670144 -3.832809
v 1.650000 0.670144 -4.147655
v 1.758799 0.370065 -3.832809
v 1.758799 0.370065 -4.147655
v 1.758799 0.670144 -3.832809
v 1.758799 0.670144 -4.147655
v 1.650000 0.370065 2.688975
v 1.650000 0.370065 2.374129
v 1.650000 0.670144 2.688975
v 1.650000 0.670144 2.374129
v 1.758799 0.370065 2.688975
v 1.758799 0.370065 2.374129
v 1.758799 0.670144 2.688975
v 1.758799 0.670144 2.374129
v -1.758799 0.370065 -1.361256
v -1.758799 0.370065 -1.676102
v -1.758799 0.670144 -1.361256
v -1.758799 0.670144 -1.676102
v -1.650000 0.370065 -1.361256
v -1.650000 0.370065 -1.676102
v -1.650000 0.670144 -1.361256
v -1.650000 0.670144 -1.676102
v -1.758799 0.370065 -3.832809
v -1.758799 0.370065 -4.147655
v -1.758799 0.670144 -3.832809
v -1.758799 0.670144 -4.147655
v -1.650000 0.370065 -3.832809
v -1.650000 0.370065 -4.147655
v -1.650000 0.670144 -3.832809
v -1.650000 0.670144 -4.147655
v -1.758799 0.370065 2.688975
v -1.758799 0.370065 2.374129
v -1.758799 0.670144 2.688975
v -1.758799 0.670144 2.374129
v -1.650000 0.370065 2.688975
v -1.650000 0.370065 2.374129
v -1.650000 0.670144 2.688975
v -1.650000 0.670144 2.374129
vn -1.000000 0.000000 0.000000
vn 1.000000 0.000000 0.000000
vn 0.000000 0.000000 -1.000000
vn 0.000000 0.000000 1.000000
vn 0.000000 1.000000 0.000000
vn 0.000000 -1.000000 0.000000
usemtl Grey
s off
f 17//7 19//7 20//7 18//7
f 21//8 22//8 24//8 23//8
f 18//9 20//9 24//9 22//9
f 19//10 17//10 21//10 23//10
f 20//11 19//11 23//11 24//11
f 17//12 18//12 22//12 21//12
f 25//7 27//7 28//7 26//7
f 29//8 30//8 32//8 31//8
f 26//9 28//9 32//9 30//9
f 27//10 25//10 29//10 31//10
f 28//11 27//11 31//11 32//11
f 25//12 26//12 30//12 29//12
f 33//7 35//7 36//7 34//7
f 37//8 38//8 40//8 39//8
f 34//9 36//9 40//9 38//9
f 35//10 33//10 37//10 39//10
f 36//11 35//11 39//11 40//11
f 33//12 34//12 38//12 37//12
f 41//7 43//7 44//7 42//7
f 45//8 46//8 48//8 47//8
f 42//9 44//9 48//9 46//9
f 43//10 41//10 45//10 47//10
f 44//11 43//11 47//11 48//11
f 41//12 42//12 46//12 45//12
f 49//7 51//7 52//7 50//7
f 53//8 54//8 56//8 55//8
f 50//9 52//9 56//9 54//9
f 51//10 49//10 53//10 55//10
f 52//11 51//11 55//11 56//11
f 49//12 50//12 54//12 53//12
f 57//7 59//7 60//7 58//7
f 61//8 62//8 64//8 63//8
f 58//9 60//9 64//9 62//9
f 59//10 57//10 61//10 63//10
f 60//11 59//11 63//11 64//11
f 57//12 58//12 62//12 61//12
o Wheel_Cube.010
v -1.650000 1.000000 -0.996027
v -1.650000 1.000000 -1.996027
v -1.650000 0.000000 -1.996027
v -1.650000 0.000000 -0.996027
v -1.299999 0.000000 -0.996027
v -1.299999 1.000000 -0.996027
v -1.299999 1.000000 -1.996027
v -1.299999 0.000000 -1.996027
v -1.650000 1.000000 -3.485267
v -1.650000 1.000000 -4.485267
v -1.650000 0.000000 -4.485267
v -1.650000 0.000000 -3.485267
v -1.299999 0.000000 -3.485267
v -1.299999 1.000000 -3.485267
v -1.299999 1.000000 -4.485267
v -1.299999 0.000000 -4.485267
v 1.300001 1.000000 3.044111
v 1.300001 1.000000 2.044111
v 1.300001 0.000000 2.044111
v 1.300001 0.000000 3.044111
v 1.650000 0.000000 3.044111
v 1.650000 1.000000 3.044111
v 1.650000 1.000000 2.044111
v 1.650000 0.000000 2.044111
v 1.300001 1.000000 -0.996027
v 1.300001 1.000000 -1.996027
v 1.300001 0.000000 -1.996027
v 1.300001 0.000000 -0.996027
v 1.650000 0.000000 -0.996027
v 1.650000 1.000000 -0.996027
v 1.650000 1.000000 -1.996027
v 1.650000 0.000000 -1.996027
v 1.300001 1.000000 -3.485267
v 1.300001 1.000000 -4.485267
v 1.300001 0.000000 -4.485267
v 1.300001 0.000000 -3.485267
v 1.650000 0.000000 -3.485267
v 1.650000 1.000000 -3.485267
v 1.650000 1.000000 -4.485267
v 1.650000 0.000000 -4.485267
v -1.650000 1.000000 3.044111
v -1.650000 1.000000 2.044111
v -1.650000 0.000000 2.044111
v -1.650000 0.000000 3.044111
v -1.300000 0.000000 3.044111
v -1.300000 1.000000 3.044111
v -1.300000 1.000000 2.044111
v -1.300000 0.000000 2.044111
vn -1.000000 0.000000 0.000000
vn 0.000000 0.000000 1.000000
vn 0.000000 1.000000 0.000000
vn 0.000000 0.000000 -1.000000
vn 0.000000 -1.000000 0.000000
vn 1.000000 0.000000 0.000000
usemtl wheel
s off
f 65//13 66//13 67//13 68//13
f 65//14 68//14 69//14 70//14
f 66//15 65//15 70//15 71//15
f 67//16 66//16 71//16 72//16
f 68//17 67//17 72//17 69//17
f 70//18 69//18 72//18 71//18
f 73//13 74//13 75//13 76//13
f 73//14 76//14 77//14 78//14
f 74//15 73//15 78//15 79//15
f 75//16 74//16 79//16 80//16
f 76//17 75//17 80//17 77//17
f 78//18 77//18 80//18 79//18
f 81//13 82//13 83//13 84//13
f 81//14 84//14 85//14 86//14
f 82//15 81//15 86//15 87//15
f 83//16 82//16 87//16 88//16
f 84//17 83//17 88//17 85//17
f 86//18 85//18 88//18 87//18
f 89//13 90//13 91//13 92//13
f 89//14 92//14 93//14 94//14
f 90//15 89//15 94//15 95//15
f 91//16 90//16 95//16 96//16
f 92//17 91//17 96//17 93//17
f 94//18 93//18 96//18 95//18
f 97//13 98//13 99//13 100//13
f 97//14 100//14 101//14 102//14
f 98//15 97//15 102//15 103//15
f 99//16 98//16 103//16 104//16
f 100//17 99//17 104//17 101//17
f 102//18 101//18 104//18 103//18
f 105//13 106//13 107//13 108//13
f 105//14 108//14 109//14 110//14
f 106//15 105//15 110//15 111//15
f 107//16 106//16 111//16 112//16
f 108//17 107//17 112//17 109//17
f 110//18 109//18 112//18 111//18
o Roof_Cube.007
v -0.750000 2.719937 -3.126122
v -0.750000 2.719937 -3.626121
v 0.750000 2.719937 -3.626121
v 0.750000 2.719937 -3.126122
v 0.750000 3.019938 -3.126122
v -0.750000 3.019938 -3.126122
v -0.750000 3.019938 -3.626121
v 0.750000 3.019938 -3.626121
v -1.000000 2.500000 -3.126122
v -1.000000 2.500000 -3.926121
v 1.000000 2.500000 -3.926121
v 1.000000 2.500000 -3.126122
v 1.000000 2.800000 -3.126122
v -1.000000 2.800000 -3.126122
v -1.000000 2.800000 -3.926121
v 1.000000 2.800000 -3.926121
vn 0.000000 -1.000000 0.000000
vn 0.000000 0.000000 1.000000
vn -1.000000 0.000000 0.000000
vn 0.000000 0.000000 -1.000000
vn 1.000000 0.000000 0.000000
vn 0.000000 1.000000 0.000000
usemtl Grey
s off
f 113//19 114//19 115//19 116//19
f 113//20 116//20 117//20 118//20
f 114//21 113//21 118//21 119//21
f 115//22 114//22 119//22 120//22
f 116//23 115//23 120//23 117//23
f 118//24 117//24 120//24 119//24
f 121//19 122//19 123//19 124//19
f 121//20 124//20 125//20 126//20
f 122//21 121//21 126//21 127//21
f 123//22 122//22 127//22 128//22
f 124//23 123//23 128//23 125//23
f 126//24 125//24 128//24 127//24
o Back_Cube.005
v -1.500000 3.500000 4.007977
v -1.500000 3.500000 -2.992024
v -1.500000 0.500000 -2.992024
v -1.500000 0.500000 -1.996027
v -1.500000 1.000000 -1.996027
v -1.500000 1.000000 -0.996027
v -1.500000 0.500000 -0.996027
v -1.500000 0.500000 2.044111
v -1.500000 1.000000 2.044111
v -1.500000 1.000000 3.044111
v -1.500000 0.500000 3.044111
v -1.500000 0.500000 4.007977
v 1.500000 3.500000 4.007977
v 1.500000 0.500000 4.007977
v 1.500000 3.500000 -2.992024
v 1.500000 0.500000 -2.992024
v -1.300000 0.500000 3.044111
v -1.300000 0.500000 2.044111
v -1.299999 0.500000 -0.996027
v -1.299999 0.500000 -1.996027
v 1.500000 0.500000 -1.996027
v 1.300001 0.500000 -1.996027
v 1.300001 0.500000 -0.996027
v 1.500000 0.500000 -0.996027
v 1.500000 0.500000 2.044111
v 1.300001 0.500000 2.044111
v 1.300001 0.500000 3.044111
v 1.500000 0.500000 3.044111
v 1.500000 1.000000 3.044111
v 1.500000 1.000000 2.044111
v 1.500000 1.000000 -0.996027
v 1.500000 1.000000 -1.996027
v -1.299999 1.000000 -0.996027
v -1.299999 1.000000 -1.996027
v 1.300001 1.000000 2.044111
v 1.300001 1.000000 3.044111
v 1.300001 1.000000 -1.996027
v 1.300001 1.000000 -0.996027
v -1.300000 1.000000 3.044111
v -1.300000 1.000000 2.044111
vn -1.000000 -0.000000 0.000000
vn 0.000000 0.000000 1.000000
vn 0.000000 1.000000 0.000000
vn 0.000000 0.000000 -1.000000
vn 0.000000 -1.000000 0.000000
vn 1.000000 -0.000000 0.000000
usemtl Grey
s off
f 129//25 130//25 131//25 132//25 133//25 134//25 135//25 136//25 137//25 138//25 139//25 140//25
f 141//26 129//26 140//26 142//26
f 141//27 143//27 130//27 129//27
f 130//28 143//28 144//28 131//28
f 140//29 139//29 145//29 146//29 136//29 135//29 147//29 148//29 132//29 131//29 144//29 149//29 150//29 151//29 152//29 153//29 154//29 155//29 156//29 142//29
f 143//30 141//30 142//30 156//30 157//30 158//30 153//30 152//30 159//30 160//30 149//30 144//30
usemtl wheel
f 147//28 135//28 134//28 161//28
f 148//25 147//25 161//25 162//25
f 134//29 133//29 162//29 161//29
f 133//26 132//26 148//26 162//26
f 155//30 154//30 163//30 164//30
f 164//28 157//28 156//28 155//28
f 158//29 157//29 164//29 163//29
f 154//26 153//26 158//26 163//26
f 151//30 150//30 165//30 166//30
f 166//28 159//28 152//28 151//28
f 160//29 159//29 166//29 165//29
f 150//26 149//26 160//26 165//26
f 145//28 139//28 138//28 167//28
f 146//25 145//25 167//25 168//25
f 138//29 137//29 168//29 167//29
f 137//26 136//26 146//26 168//26
o Front_Cube.003
v -1.500000 2.500000 -3.126122
v -1.500000 2.500000 -5.126121
v -1.500000 2.151416 -5.126121
v -1.500000 2.151416 -4.185366
v -1.500000 1.537660 -4.185366
v -1.500000 1.537660 -5.126121
v -1.500000 0.500000 -5.126121
v -1.500000 0.500000 -4.485267
v -1.500000 1.000000 -4.485267
v -1.500000 1.000000 -3.485267
v -1.500000 0.500000 -3.485267
v -1.500000 0.500000 -3.126122
v 1.500000 2.500000 -3.126122
v 1.500000 0.500000 -3.126122
v 1.500000 2.500000 -5.126121
v 1.500000 2.151416 -5.126121
v 1.500000 2.151416 -4.185366
v 1.500000 1.537660 -4.185366
v 1.500000 1.537660 -5.126121
v 1.500000 0.500000 -5.126121
v -1.299999 0.500000 -3.485267
v -1.299999 0.500000 -4.485267
v 1.500000 0.500000 -4.485267
v 1.300001 0.500000 -4.485267
v 1.300001 0.500000 -3.485267
v 1.500000 0.500000 -3.485267
v 1.500000 1.000000 -3.485267
v 1.500000 1.000000 -4.485267
v -1.299999 1.000000 -3.485267
v -1.299999 1.000000 -4.485267
v 1.300001 1.000000 -4.485267
v 1.300001 1.000000 -3.485267
vn 0.000000 -1.000000 -0.000000
vn 0.000000 0.000000 -1.000000
vn 0.000000 1.000000 0.000000
vn -1.000000 0.000000 0.000000
vn 0.000000 0.000000 1.000000
vn 1.000000 0.000000 0.000000
usemtl Grey
s off
f 172//31 171//31 184//31 185//31
f 173//32 172//32 185//32 186//32
f 186//33 187//33 174//33 173//33
usemtl Red
f 169//34 170//34 171//34 172//34 173//34 174//34 175//34 176//34 177//34 178//34 179//34 180//34
f 181//35 169//35 180//35 182//35
f 181//33 183//33 170//33 169//33
f 170//32 183//32 184//32 171//32
f 187//32 188//32 175//32 174//32
f 180//31 179//31 189//31 190//31 176//31 175//31 188//31 191//31 192//31 193//31 194//31 182//31
f 183//36 181//36 182//36 194//36 195//36 196//36 191//36 188//36 187//36 186//36 185//36 184//36
usemtl wheel
f 189//32 179//32 178//32 197//32
f 190//34 189//34 197//34 198//34
f 178//31 177//31 198//31 197//31
f 177//35 176//35 190//35 198//35
f 193//36 192//36 199//36 200//36
f 200//32 195//32 194//32 193//32
f 196//31 195//31 200//31 199//31
f 192//35 191//35 196//35 199//35
o Window_Plane
v 0.711581 1.542091 -4.688837
v -1.457402 2.151416 -4.185366
v 1.451201 2.151416 -4.185366
v -1.457402 1.537660 -4.185366
v 1.451201 1.537660 -4.185366
v -1.457402 2.151416 -5.064463
v 1.451201 2.151416 -5.064463
v -1.457402 1.537660 -5.064463
v 1.451201 1.537660 -5.064463
vn 0.000000 0.000000 1.000000
vn 0.000000 0.000000 -1.000000
vn 1.000000 0.000000 0.000000
vn -1.000000 0.000000 0.000000
vn 0.000000 -1.000000 -0.000000
vn 0.000000 1.000000 0.000000
usemtl Black
s off
f 202//37 204//37 205//37 203//37
f 206//38 207//38 209//38 208//38
f 203//39 205//39 209//39 207//39
f 204//40 202//40 206//40 208//40
f 205//41 204//41 208//41 209//41
f 202//42 203//42 207//42 206//42
